<svg 
 xmlns="http://www.w3.org/2000/svg"
 xmlns:xlink="http://www.w3.org/1999/xlink"
 width="77.25px" height="77.25px">
<path fill-rule="evenodd"  stroke="rgb(255, 255, 255)" stroke-width="1.5px" stroke-linecap="butt" stroke-linejoin="miter" fill="none"
 d="M38.133,2.132 C58.214,2.132 74.492,18.411 74.492,38.492 C74.492,58.572 58.214,74.850 38.133,74.850 C18.053,74.850 1.775,58.572 1.775,38.492 C1.775,18.411 18.053,2.132 38.133,2.132 Z"/>
<path fill-rule="evenodd"  fill="rgb(255, 255, 255)"
 d="M53.566,61.622 L22.819,61.622 C22.787,61.624 22.758,61.638 22.726,61.638 C22.654,61.638 22.580,61.632 22.507,61.622 C21.730,61.503 21.197,60.785 21.318,60.016 C22.339,53.518 26.759,48.428 32.550,46.415 L32.605,46.365 L32.730,46.365 C34.407,45.802 36.180,45.457 38.036,45.457 C46.398,45.457 53.430,51.580 54.755,60.019 C54.876,60.785 54.343,61.503 53.566,61.622 ZM38.036,42.271 C32.448,42.271 27.901,37.781 27.901,32.265 C27.901,26.748 32.448,22.261 38.036,22.261 C43.626,22.261 48.174,26.748 48.174,32.265 C48.174,37.781 43.626,42.271 38.036,42.271 Z"/>
</svg>