<?xml version="1.0" encoding="utf-8"?>
<!-- Generator: Adobe Illustrator 24.0.0, SVG Export Plug-In . SVG Version: 6.00 Build 0)  -->
<svg version="1.1" id="Capa_1" xmlns="http://www.w3.org/2000/svg" xmlns:xlink="http://www.w3.org/1999/xlink" x="0px" y="0px"
	 viewBox="0 0 76 28" style="enable-background:new 0 0 76 28;" xml:space="preserve">
<style type="text/css">
	.st0{fill:#FFFFFF;}
	.st1{fill:#FEF3E2;}
</style>
<path class="st0" d="M17.7,6.9c-0.5,0-0.9,0-1.3,0V0.9c0-0.3-0.2-0.6-0.5-0.8C15.6-0.1,15.3,0,15,0.2L0.3,12.4
	C0.1,12.6,0,12.9,0,13.1c0,0.3,0.1,0.5,0.3,0.7L15,26.1c0.3,0.2,0.6,0.3,0.9,0.1c0.3-0.1,0.5-0.5,0.5-0.8v-6.3
	c0.9-0.2,2.6-0.5,4.7-0.5c4.8,0,11.3,1.6,15.2,9c0.2,0.3,0.6,0.5,1,0.4c0.4-0.1,0.6-0.5,0.6-0.8C38,8.4,22.4,6.9,17.7,6.9z"/>
<path class="st1" d="M55.7,6.9c-0.5,0-0.9,0-1.3,0V0.9c0-0.3-0.2-0.6-0.5-0.8C53.6-0.1,53.3,0,53,0.2L38.3,12.4
	c-0.2,0.2-0.3,0.4-0.3,0.7c0,0.3,0.1,0.5,0.3,0.7L53,26.1c0.3,0.2,0.6,0.3,0.9,0.1c0.3-0.1,0.5-0.5,0.5-0.8v-6.3
	c0.9-0.2,2.6-0.5,4.7-0.5c4.8,0,11.3,1.6,15.2,9c0.2,0.3,0.6,0.5,1,0.4c0.4-0.1,0.6-0.5,0.6-0.8C76,8.4,60.4,6.9,55.7,6.9z"/>
</svg>
